<?xml version="1.0" standalone="no"?>
<!DOCTYPE svg PUBLIC "-//W3C//DTD SVG 20010904//EN"
 "http://www.w3.org/TR/2001/REC-SVG-20010904/DTD/svg10.dtd">
<svg version="1.0" xmlns="http://www.w3.org/2000/svg"
 width="225.000000pt" height="225.000000pt" viewBox="0 0 225.000000 225.000000"
 preserveAspectRatio="xMidYMid meet">

<g transform="translate(0.000000,225.000000) scale(0.100000,-0.100000)"
fill="#000000" stroke="none">
<path d="M620 1795 l0 -205 410 0 410 0 0 205 0 205 -410 0 -410 0 0 -205z"/>
<path d="M442 1835 l-143 -140 3 -196 3 -197 143 139 142 138 -2 198 -3 198
-143 -140z"/>
<path d="M462 1420 l-143 -140 148 0 148 0 120 115 120 114 256 1 256 0 23 25
23 25 -404 0 -404 -1 -143 -139z"/>
<path d="M870 1275 l0 -205 410 0 410 0 0 205 0 205 -410 0 -410 0 0 -205z"/>
<path d="M692 1319 l-142 -139 2 -199 3 -198 148 142 147 143 0 196 c0 108 -3
196 -7 196 -5 -1 -72 -64 -151 -141z"/>
<path d="M715 905 l-150 -145 150 0 150 0 40 37 c22 20 79 74 126 120 l86 83
255 0 255 0 23 25 23 25 -404 0 -404 -1 -150 -144z"/>
<path d="M1130 765 l0 -205 410 0 410 0 0 205 0 205 -410 0 -410 0 0 -205z"/>
<path d="M952 810 l-142 -138 2 -199 3 -200 143 137 142 138 -2 199 -3 200
-143 -137z"/>
<path d="M974 396 l-149 -145 409 0 408 -1 147 145 146 145 -406 0 -405 0
-150 -144z"/>
</g>
</svg>
